<svg id="Layer_2" data-name="Layer 2" xmlns="http://www.w3.org/2000/svg" width="38.21mm" height="95.01mm" viewBox="0 0 108.3 269.33">
  <title>tegning4</title>
  <path d="M348.8,485.66l21.35,18.51h4s-1.42-6.84,5.69-11.39c0,0-1.42-9.39,6.84-8.82,0,0,6-.86,6.54,5.12,0,0,11.67,6.83,6.27,18.79,0,0-6.84,10.53-11.39,12.81,0,0-2.85,3.41-8.26-1.71,0,0,2.57,8.54-5,8.82,0,0-17.23,2-24.63-3.41,0,0-4.84,9.39-9.68,12.24,0,0,2.28,5.69,4.27,12.52,0,0,6.83,13.38,10.53,14.8,0,0,10.82,6.27,12,10.82s-4.94-2.76-4.94-2.76-1,1.07,1.82,4.25c0,0,1.15,4.18-6.78-4.74,0,0-2.64-2.77-.49,5.72,0,0,.59,4.19-4.5-4.9,0,0-1.45-1.15-1.45,4.47,0,0-1.16,4.29-2.81-8.43,0,0,1-3.14-5.95-9.42,0,0-7.93-8.76-11.07-16,0,0-4.14-5.95,2.47-14.87,0,0,3.64-5.79,6.12-10.25l-6.61-3S315.43,535,312.78,545.56c0,0-1.48,17.85-5.78,31.73,0,0-4.3,11.4,3.8,18,0,0,4.3,4,7.27,7.28,0,0,8.59,7.1-5.12,2.31,0,0-6.45-5.45-11.57-6.78,0,0-11.4.5-6.61-8.26,0,0,1.82-.33.83-13.38,0,0-2-23.47,3-32.56,0,0,1.49-2.15,3.31-13.55,0,0-.17-6,7.93-19.83,0,0,7.6-15.37,8.76-20.49,0,0,3.3-31.23,3.47-45.61,0,0,.16-14.38,8.92-31.57,0,0,4.79-9.25,5-28.09,0,0,1.32-13.22-1.16-23.63,0,0-1.82-11.57,2.15-20.82,0,0,4.46-6.61,7.6,3.63a30.1,30.1,0,0,1-.33,10.91s-1.31,2.81,3.07,5.95c0,0,2.72,2.81-2.57,6.61,0,0-1.81,6.44,2.57,22.14,0,0,2.72,14.71-4.72,34.05,0,0-2.31,19-.5,35.69C342,459.3,353.41,471.37,348.8,485.66Z" transform="translate(-293.09 -337.72)" stroke="#000" stroke-miterlimit="10"/>
  <circle cx="63.96" cy="256.49" r="12.34" fill="#65c0ba" stroke="#65c0ba" stroke-miterlimit="10"/>
</svg>
