<svg xmlns="http://www.w3.org/2000/svg" width="66.42mm" height="94.9mm" viewBox="0 0 188.29 269">
  <title>tegning1</title>
  <g id="Layer_2" data-name="Layer 2">
    <path d="M53.11,96.35A19.18,19.18,0,0,0,47,86.05s-2.75-1.3-4.49-7.25a21.36,21.36,0,0,0-5.8-10.87l5.94-23.06s5.22-5.94,2.25-9c0,0-3.12-5.8-8.19,0,0,0-1,.73-.73,7.83L27,62.27s-2,2.32,0,7.54c0,0,7.83,21.32,14.94,29.87l-.58,20.59A57.31,57.31,0,0,0,46.73,142s6.82,12.33,12,19a68.33,68.33,0,0,1,6.32,17.84s.39,6.47,4.11,5.88c0,0,.59,20.78,2.36,31.17a12.32,12.32,0,0,1,0,5.88,24.29,24.29,0,0,0,.34,10.39S70,263.74,68,267.07c0,0-1,9.61-14.7,16.66,0,0-3.14,3.53,4.31,2.75,0,0,5.49-2.16,17-2.55,0,0,1.37,2.16,1.18-6.27A59.32,59.32,0,0,1,82.14,252s4.51-12.16,2.16-23.52c0,0,5.29-21.57,6.47-38.82l1.37-18s12.35-8.23,14.9-39c0,0,.78-14.31,0-23.13,0,0,9.8-20.19,7.64-33.72,0,0,6.47-7.64-2.35-17.25V53.21s8-2.74,1.17-10.78c0,0-3.92-1.18,1.38-12.15,0,0,2-4.71-1.38-6.67,0,0-13.13,7.06-10.38,25.09,0,0,2.35,22.55-2.55,41.76,0,0-9,4.11-14.31,5.48,0,0-7.45.2-11.37,4.71,0,0-6.31,1.17-3.35-5.29,0,0,8.84-6.28,2.56-19.41,0,0-.39-12.74-10.39-3.14,0,0-10.78-1.17-10.38,9.61,0,0,0,9.6,2.94,12.94S53.11,96.35,53.11,96.35Z" transform="translate(-25.61 -18.09)" stroke="#000" stroke-miterlimit="10"/>
    <path d="M93.21,104.76S79.5,107.2,80.72,136.15c0,0,6.32,3.36,6.21-7.31,0,0,2.32-11,6.28-16.77Z" transform="translate(-25.61 -18.09)" fill="#fff" stroke="#000" stroke-miterlimit="10"/>
  </g>
  <g id="Layer_3" data-name="Layer 3">
    <path d="M34.31,40.84,59.64,21.3S84.11,19.16,102.58,37c0,0,17.6,15.45,17,46.58,0,0,1.94,31.77-10.3,49.16,0,0-3.86,9.87-14.38,22.54,0,0-1.08,6,4.51,5.8,0,0,37.13-26.19,49.8-31.78,0,0,18.68-13.52,15.46,6,0,0-11.81,43.57-5.59,58.17,0,0,7.52,9.88,21.26-4.72,0,0-2.58,17-1.08,29.62,0,0-14.59,23.4-11.59,33.28,0,0,8.59-23.83,12.67-24.9,0,0,8.37,19.53,21,2.57,0,0,18.25-18.46,9.88-28.55,0,0-2.58-7.08-15.89,4.94,0,0-7.08,6-8.8,6.65,0,0-1.71-21,3-30.27,0,0,13.95-15.67,15.24-23.82,0,0,.21-3-5.37-3,0,0-16.31,21.25-20,25.76,0,0-8.83,10.69-15,10.31,0,0-6-.86,5.58-49.38a19.65,19.65,0,0,0-4.51-18s-4.5-11.17-29.41,5.79c0,0-15.67,9.45-24.47,14.39,0,0,12.72-28.34,12.26-45.51,0,0-.88-38-9.47-49.81,0,0-10.09-20.77-30.7-27.56a57.53,57.53,0,0,0-23.61-2.28s-.77.17-.6,1.46" transform="translate(-25.61 -18.09)" fill="#65c0ba" stroke="#65c0ba" stroke-miterlimit="10"/>
    <path d="M186.21,218.45s16.84-7.81,20.54-15.21c0,0,5.75,2.88-10.27,21.37C196.48,224.61,186,239.8,186.21,218.45Z" transform="translate(-25.61 -18.09)" fill="#fff" stroke="#65c0ba" stroke-miterlimit="10"/>
    <path d="M40.9,32.87A4.63,4.63,0,0,0,36.15,37a5.57,5.57,0,0,0-.61,3.14,2.55,2.55,0,0,0,0,.39,4.82,4.82,0,0,0,9.62.52,5.36,5.36,0,0,0,.16-.89,5.68,5.68,0,0,0,.42-2C45.86,35.59,44.26,32.87,40.9,32.87Z" transform="translate(-25.61 -18.09)"/>
  </g>
</svg>
