<svg xmlns="http://www.w3.org/2000/svg" width="59.87mm" height="96.26mm" viewBox="0 0 169.72 272.87">
  <title>tegning3</title>
  <g id="Layer_5" data-name="Layer 5">
    <g>
      <path d="M100.8,467.22h9s3.31-12.34,12-18.06c0,0-9.44-14.56-10.53-25,0,0-2.6-10.7-10.54-16.31,0,0-10.6-4.54-11.67-41.7,0,0-16.57-2.67-6.68-13.1,0,0,3.86-3.74-3.15-13.9,0,0-4.34-9.35,5.82-4,0,0,7,2.4,15,35.28,0,0,5,17.91,12.65,26.73,0,0,8.69,7.22,10.56,14.43,0,0,17.91,24.33,20.32,35,0,0,1.6,8.29,1.6,12.56V461s16.59-11.32,29-15.75c0,0,15.29-7.34,18.34-9.33,0,0,4-3.05,12.69,3.37,0,0,6,5-20.33,7.95,0,0-20,16.51-31.34,21.56a133.1,133.1,0,0,1-14.53,5.81s-5.35,3.82-5.65,26.45c0,0,.3,30.42-2.45,39.44,0,0-1.22,25.23-8.56,40.21a19,19,0,0,0-.31,9.79s3.06,5.81-2.6,7.18c0,0-.61-.15-3.51,6.12,0,0-.92,2.14-8.41,1.53,0,0-4.59.3,2.75-9.33,0,0,3.21-4,2.45-13.15,0,0-.92-17.12,2.29-31.8,0,0,4.28-12.23,3.06-20.79,0,0-.76-19.57-5.35-24.31,0,0-12.08,5.81-21.26-2,0,0-9.48-11.47-20-12.38a24.07,24.07,0,0,0-7.65-.92s-3.06.46-9.17-6.88c0,0-6.58-6.27-11-4.13,0,0-4,.31-5.05-4.43,0,0-.3-6,8.26-4.13,0,0,11.31,7.95,17.12,9.94a22.29,22.29,0,0,0,15.6-3.06s5.35-1.38,1.22-6.73c0,0-10.85-2.75-8.1-14.83,0,0-5.51-4.28.46-9.48,0,0,2.75-3.51,7.49-.91,0,0,8.25-2.6,12.84,2.75,0,0,4.89,4.89,6.73,8.71C100.24,457.43,101.83,463.4,100.8,467.22Z" transform="translate(-36.63 -333.02)" stroke="#000" stroke-miterlimit="10"/>
      <path d="M38.2,474s-4.63,2.63,5.37,11.52c0,0,36.19,39.68,43.81,51.27a69.23,69.23,0,0,0,7.36,11.23,70.71,70.71,0,0,0,19.32,16.65,17.89,17.89,0,0,1,2.53.93,19.05,19.05,0,0,1,7.93,7.07s1.74,2,.75,4.09" transform="translate(-36.63 -333.02)" fill="none" stroke="#65c0ba" stroke-linecap="round" stroke-miterlimit="10"/>
      <path d="M204.08,443s4.94,18.62-22.56,54.34c0,0-43,53.43-58.71,69,0,0-12.41,7-11.15,13.74" transform="translate(-36.63 -333.02)" fill="none" stroke="#65c0ba" stroke-linecap="round" stroke-miterlimit="10"/>
    </g>
  </g>
</svg>
