<svg xmlns="http://www.w3.org/2000/svg" width="41.99mm" height="81.05mm" viewBox="0 0 119.03 229.73">
  <title>tegning5</title>
  <g id="Layer_8" data-name="Layer 8">
    <g>
      <path d="M662,419l-25.46,15.73s-5.76-.2-13.07,7l2.49,3.65s8.42-3.27,11.45-9.62l25-15.71" transform="translate(-556.61 -364.25)" fill="#21bfac"/>
      <path d="M597.74,459.52S593,427.78,595.06,416c0,0-3.23-2.94,12.05-15.87,0,0,.59-2.64-3.53-9.7,0,0-4.11-5.29-1.47-16.46,0,0-1.76-8.22,7.94-8.22h6.76s3.76-2.82,6,.9c0,0,3.56,4,1,6.46,0,0,2.1,9.38-1.78,13.74,0,0-3.39,7.43,5.17,8.56,0,0,25.7,4,34.58,8.89,1,1,2.43,2.62,4,4.68a78.14,78.14,0,0,1,5,7.32s-.4-.67-2.37-3.84c1.45,2,2.59,3.65,2.37,3.84,0,0-.07.06-1.45-.69h0l0,1.95h0l-1.59-.17s1.29,6,.32,6.62,2.43,9.86,2.43,9.86,8.4,18.58,2.58,21.81c0,0-1.29,2.59-8.88,3.07,0,0-5.17-1.78.32-7.27,0,0,1.78-1.78,3.55-1.78,0,0,1.78,0-3.55-9.05,0,0-5.82-6.78-8.56-12.92a220.18,220.18,0,0,1-24.08-11.31s-10.83,16.8-13.09,20.52c0,0-3.55,5.17,3.4,15.35,0,0,8.56,12,2.9,23.43,0,0-1.45,14.06,1.62,34.58,0,0,10,17,8.13,31.5,0,0-3.34,22.14,0,24.73,0,0,7.06,2.42,1.56,10.34,0,0-2.74,7.59-.32,11.15,0,0,4.2,1.29,0,5,0,0-8.08,3.23-9.53-7.92,0,0-1.78-12-2.75-24.4,0,0-1.29-24.88-7.11-34.42,0,0-3.07-1.29-5.17-15.83,0,0-5.82-17.94-7.92-26.66,0,0-26.17,10.82-32.47,13.57,0,0,6.3,17.29,5.17,26.5,0,0,.32,15.67,6.78,18.74,0,0,6.63,4.53-4.2,12.28,0,0-4.68,6.3-.16,15.35,0,0-1.94,13.74-8.89-12.92,0,0-.32-10.34,1-17.78,0,0,1.13-1-6.14-17,0,0-5.49-16.32-6.62-21,0,0-3.56-9.53,3.23-14.86C561.27,486.73,581.53,467.53,597.74,459.52Z" transform="translate(-556.61 -364.25)" stroke="#000" stroke-miterlimit="10"/>
      <path d="M638.25,406.55s2.7,6.18,19.3,9.65c0,0,3.86-3.67-4.44-6.76C653.11,409.44,643.07,405.2,638.25,406.55Z" transform="translate(-556.61 -364.25)" fill="#fff" stroke="#000" stroke-miterlimit="10"/>
      <path d="M661.71,455.15l-29.41,5.58s-5.3-2.24-14.69,1.84l1,4.31s9-.05,14.13-4.9l29-5.74" transform="translate(-556.61 -364.25)" fill="#21bfac"/>
    </g>
  </g>
</svg>
