<svg xmlns="http://www.w3.org/2000/svg" width="45.68mm" height="96.4mm" viewBox="0 0 129.49 273.27">
  <title>tegning2</title>
  <g id="Layer_4" data-name="Layer 4">
    <g>
      <path d="M345.84,55.1s2.44,2.84,8.72,4.46c0,0,16.83,5.07,23.52,8.31,0,0,4.87-.2,7.1,7.51,0,0,5.06,10.54,5.06,20.88,0,0,1,20.48,3.65,22.91,0,0,7.1,5.27,2,21.29,0,0-1,12-10.95,19.46,0,0-20.47,12.37-21.08,23.72,0,0-2,15.81-4.46,26.76,0,0-1.62,7.1,2,35.48,0,0,.6,22.91,5.47,28.79,0,0,3,3.45,6.08,4.06,0,0,8.52,4-2.84,5.07,0,0-5.67,1.41-10.54-4.87,0,0-1.22-1.83-6.08-2.84,0,0-6.28-.81-1-9.53,0,0,2.63-1.21-2.44-20.07,0,0-6.49-11.15-4.26-23.72a21.87,21.87,0,0,0-2.23-11s-4.25-15.41-3.85-46.83c0,0-.81-11.76-9.53-28.79,0,0-4.46-18.86-1.21-46.43,0,0-5.07-12.16,3.24-18.25,0,0,1.83-2,1.22-9.32,0,0-3-3.25.61-7.1,0,0,1.82-3,.81-12.77s.6-14.6,5.27-28c0,0,4.05-6.89,5.67,1.42,0,0-1.82,11,.21,14.19,0,0,7.7,7.3.4,12.77C346.45,42.73,344,50,345.84,55.1Z" transform="translate(-317.53 -11.17)" stroke="#000" stroke-miterlimit="10"/>
      <path d="M374.07,88.07S360,74.5,352.54,86c0,0-4.84,3.92-3.79,12.27h-3.4S348.48,78.93,348,74C348,74,368.07,76.85,374.07,88.07Z" transform="translate(-317.53 -11.17)" fill="#fff" stroke="#000" stroke-miterlimit="10"/>
      <polygon points="42.18 99.62 42.18 103.8 47.66 105.1 45.08 99.62 42.18 99.62" fill="#fff" stroke="#000" stroke-miterlimit="10"/>
      <path d="M349.21,126.17s-2.25,14.72,7.52,12.62C356.73,138.79,355.52,128.57,349.21,126.17Z" transform="translate(-317.53 -11.17)" fill="#fff" stroke="#000" stroke-miterlimit="10"/>
      <path d="M332.92,52.83s-30.22-.56-1.5-10.69c0,0,29.46-12.58,94.77-15.39,0,0,39-2.25,6.19,10.13C432.38,36.88,372.14,56.21,332.92,52.83Z" transform="translate(-317.53 -11.17)" fill="none" stroke="#65c0ba" stroke-miterlimit="10" stroke-width="3"/>
      <path d="M345.14,31.76a4.54,4.54,0,0,0-4.51,3.15,5.44,5.44,0,0,0-1.56-.23c-3.92,0-5.45,3.71-4.6,6.61,0,.13.07.27.11.4-.22,2.65,1.38,5.49,4.81,5.49s5-2.86,4.81-5.51a5.45,5.45,0,0,0,.94.09C351.57,41.76,351.58,31.76,345.14,31.76Z" transform="translate(-317.53 -11.17)"/>
    </g>
  </g>
</svg>
